<?xml version="1.0" encoding="UTF-8"?>
<svg id="Layer_2" data-name="Layer 2" xmlns="http://www.w3.org/2000/svg" width="80.06" height="54.07" viewBox="0 0 80.06 54.07">
  <g id="Layer_1-2" data-name="Layer 1">
    <g>
      <path d="M3.15,6.73v43.81s.25,2.77-3.15,3.52h40.16s21.27.64,21.4-27.82C61.68-1.2,39.91.18,39.53.06S25.18.06,25.18.06l1.13,1.76h9.95s19.13,1.38,18.63,24.42c-.5,23.04-13.34,25.43-15.23,26.06s-30.97,0-30.97,0c0,0,1.01-.25,1.13-1.89s0-37.39,0-37.39c0,0-.25-6.04-6.67-6.29Z" fill="#906c22"/>
      <path d="M1.82.06h10.89s8.72-.28,13.16,7.93l24.08,33.99s0,1.42-1.51,2.83-2.93,2.93-2.93,2.93L20.49,11.95S14.82.72,3.87,1.57L1.82.06Z" fill="#906c22"/>
      <path d="M50.98,52.65s3.3-1.23,4.34-3.59c0,0,2.83,3.21,5.48,3.49h10.57l-1.04-1.32V4.78s.09-3.87-4.44-4.72c0,0,3.59-.57,7.46,2.45s3.49,7.74,3.49,7.74v40.69s.76,2.93,3.21,3.12h-24.08s-1.32.19-5-1.42Z" fill="#906c22"/>
    </g>
  </g>
</svg>